<svg width="30" height="30" viewBox="0 0 30 30" fill="none" xmlns="http://www.w3.org/2000/svg">
<path fill-rule="evenodd" clip-rule="evenodd" d="M23.125 14.0625C21.5344 14.0625 20.1606 15.1751 19.83 16.7309L19.8022 16.8614C19.7173 17.261 19.7024 17.6724 19.758 18.0771L19.9493 19.468C19.8778 19.4766 19.8064 19.4856 19.735 19.4949C18.6354 19.6377 17.8125 20.5744 17.8125 21.6832V24.5668C17.8125 25.6757 18.6354 26.6123 19.735 26.7551C21.9855 27.0474 24.2644 27.0474 26.515 26.7551C27.6146 26.6123 28.4375 25.6757 28.4375 24.5668V21.6832C28.4375 20.5744 27.6146 19.6377 26.515 19.4949C26.4436 19.4856 26.3722 19.4766 26.3007 19.468L26.4919 18.0771C26.5476 17.6724 26.5326 17.261 26.4477 16.8614L26.42 16.7309C26.0894 15.1751 24.7155 14.0625 23.125 14.0625ZM24.43 19.3081L24.6344 17.8217C24.6605 17.6318 24.6535 17.4387 24.6137 17.2511L24.5859 17.1206C24.4393 16.4308 23.8302 15.9375 23.125 15.9375C22.4197 15.9375 21.8106 16.4308 21.664 17.1206L21.6363 17.2511C21.5964 17.4387 21.5894 17.6318 21.6155 17.8217L21.8199 19.3081C22.6894 19.2649 23.5605 19.2649 24.43 19.3081Z" fill="black"/>
<path d="M25.8646 12.4762C25.8966 12.6861 25.6637 12.8378 25.4738 12.7426C24.7628 12.386 23.9632 12.1875 23.125 12.1875C20.6491 12.1875 18.5106 13.9193 17.9959 16.3411L17.9682 16.4717C17.8693 16.9372 17.8324 17.413 17.8579 17.887C17.8684 18.0807 17.7771 18.2664 17.6202 18.3805C16.5937 19.1271 15.9375 20.3365 15.9375 21.6832V23.4567C15.9375 23.6622 15.772 23.8296 15.5664 23.8309C13.2297 23.8455 10.8926 23.7694 8.56031 23.6026L6.6678 23.4672C5.45716 23.3806 4.45861 22.4856 4.24045 21.2916C3.70589 18.3659 3.61437 15.3764 3.96897 12.4235L4.30958 9.58707C4.474 8.2179 5.63553 7.1875 7.01453 7.1875H9.87899C11.1194 7.1875 12.1249 8.19305 12.1249 9.43346C12.1249 9.47443 12.1582 9.50765 12.1991 9.50765H23.0902C24.416 9.50765 25.5453 10.471 25.7543 11.7802L25.8343 12.282C25.8447 12.3467 25.8548 12.4114 25.8646 12.4762Z" fill="black"/>
</svg>
