<svg width="30" height="30" viewBox="0 0 30 30" fill="none" xmlns="http://www.w3.org/2000/svg">
<path fill-rule="evenodd" clip-rule="evenodd" d="M18.1184 4.06252L18.1127 4.0625H11.8872L11.8816 4.06252H10.625C10.1072 4.06252 9.6875 4.48225 9.6875 5.00002C9.6875 5.51778 10.1072 5.93752 10.625 5.93752H10.9497V12.2639C5.38509 14.8944 4.5812 22.5649 9.58274 26.2744L9.95149 26.5479C12.9498 28.7717 17.0501 28.7717 20.0485 26.5479L20.4172 26.2744C25.4188 22.5649 24.6149 14.8944 19.0502 12.2639V5.93752H19.375C19.8928 5.93752 20.3125 5.51778 20.3125 5.00002C20.3125 4.48225 19.8928 4.06252 19.375 4.06252H18.1184ZM9.87107 15.3125H20.1289C19.5636 14.7185 18.8637 14.2197 18.0345 13.8622C17.513 13.6374 17.1752 13.1239 17.1752 12.556V5.93752H12.8247V12.556C12.8247 13.1239 12.487 13.6374 11.9655 13.8622C11.1363 14.2197 10.4364 14.7185 9.87107 15.3125ZM12.5 21.25C11.8096 21.25 11.25 21.8097 11.25 22.5C11.25 23.1904 11.8096 23.75 12.5 23.75C13.1904 23.75 13.75 23.1904 13.75 22.5C13.75 21.8097 13.1904 21.25 12.5 21.25ZM15 20C15 19.3097 15.5596 18.75 16.25 18.75C16.9404 18.75 17.5 19.3097 17.5 20C17.5 20.6904 16.9404 21.25 16.25 21.25C15.5596 21.25 15 20.6904 15 20Z" fill="black"/>
</svg>
