<svg width="22" height="22" viewBox="0 0 22 22" fill="none" xmlns="http://www.w3.org/2000/svg">
<path d="M11 3.20825C6.69676 3.20825 3.20831 6.6967 3.20831 10.9999C3.20831 15.3031 6.69676 18.7916 11 18.7916C15.0495 18.7916 18.377 15.7027 18.7558 11.7523C18.7734 11.5684 18.6789 11.3919 18.5162 11.3046C18.3534 11.2173 18.1541 11.2362 18.0107 11.3526C17.2227 11.9921 16.2192 12.3749 15.125 12.3749C12.5937 12.3749 10.5416 10.3229 10.5416 7.79158C10.5416 6.28816 11.265 4.9538 12.3847 4.11728C12.5327 4.00667 12.5999 3.81799 12.555 3.63873C12.51 3.45947 12.3619 3.32472 12.1792 3.29697C11.7944 3.23852 11.4006 3.20825 11 3.20825Z" fill="#555555"/>
</svg>
