<svg width="60" height="60" viewBox="0 0 60 60" fill="none" xmlns="http://www.w3.org/2000/svg">
<path fill-rule="evenodd" clip-rule="evenodd" d="M52.5254 25.4283L52.5319 34.4855C52.4681 35.3483 52.3859 36.2102 52.2853 37.0704C52.1171 38.5089 50.9477 39.6693 49.4792 39.8334C44.8798 40.3474 40.1203 40.3474 35.5209 39.8334C34.0524 39.6693 32.883 38.5089 32.7147 37.0704C32.1653 32.3729 32.1653 27.6273 32.7147 22.9298C32.883 21.4913 34.0524 20.3309 35.5209 20.1668C40.1203 19.6527 44.8798 19.6527 49.4792 20.1668C50.9477 20.3309 52.1171 21.4913 52.2853 22.9298C52.3826 23.7613 52.4626 24.5943 52.5254 25.4283ZM42.5 26.2501C40.429 26.2501 38.75 27.929 38.75 30.0001C38.75 32.0712 40.429 33.7501 42.5 33.7501C44.5711 33.7501 46.25 32.0712 46.25 30.0001C46.25 27.929 44.5711 26.2501 42.5 26.2501Z" fill="#299764"/>
<path d="M51.009 15.0994C51.3977 15.7725 50.6682 16.5263 49.8957 16.44C45.0195 15.895 39.9805 15.895 35.1043 16.44C31.931 16.7947 29.3645 19.2935 28.9901 22.4942C28.4069 27.4811 28.4069 32.5191 28.9901 37.506C29.3645 40.7067 31.931 43.2055 35.1043 43.5602C39.9805 44.1052 45.0195 44.1052 49.8957 43.5602C50.6733 43.4733 51.4088 44.2323 51.0164 44.9092C49.0699 48.2663 45.5996 50.6093 41.5671 51.0336L39.9374 51.2051C31.6603 52.0761 23.3117 52.0187 15.0473 51.0339L13.9674 50.9052C9.51212 50.3743 5.982 46.8934 5.38857 42.446C4.28633 34.1853 4.28633 25.8149 5.38857 17.5542C5.982 13.1068 9.51212 9.62592 13.9674 9.095L15.0473 8.96633C23.3117 7.98151 31.6603 7.92407 39.9374 8.79508L41.5671 8.96657C45.603 9.39128 49.0678 11.7378 51.009 15.0994Z" fill="#299764"/>
</svg>
