<svg width="60" height="60" viewBox="0 0 60 60" fill="none" xmlns="http://www.w3.org/2000/svg">
<path fill-rule="evenodd" clip-rule="evenodd" d="M30 9.37427L48.184 9.8884C51.3971 9.97925 54.0546 12.4184 54.42 15.6119C55.2288 22.6809 55.2288 29.8191 54.42 36.8882C54.0546 40.0817 51.3971 42.5208 48.184 42.6116L33.125 43.0374V48.125H42.5C43.5355 48.125 44.375 48.9645 44.375 50C44.375 51.0356 43.5355 51.875 42.5 51.875H17.5C16.4645 51.875 15.625 51.0356 15.625 50C15.625 48.9645 16.4645 48.125 17.5 48.125H26.875V43.0374L11.8159 42.6116C8.60284 42.5208 5.9453 40.0817 5.57991 36.8882C4.77109 29.8191 4.77109 22.6809 5.57991 15.6119C5.9453 12.4184 8.60284 9.97925 11.8159 9.8884L30 9.37427ZM12.5 34.375C11.4645 34.375 10.625 35.2145 10.625 36.25C10.625 37.2856 11.4645 38.125 12.5 38.125H47.5C48.5355 38.125 49.375 37.2856 49.375 36.25C49.375 35.2145 48.5355 34.375 47.5 34.375H12.5Z" fill="#299764"/>
</svg>
