<svg width="60" height="60" viewBox="0 0 60 60" fill="none" xmlns="http://www.w3.org/2000/svg">
<path d="M25 9.375C19.8223 9.375 15.625 13.5723 15.625 18.75C15.625 23.9277 19.8223 28.125 25 28.125C30.1777 28.125 34.375 23.9277 34.375 18.75C34.375 13.5723 30.1777 9.375 25 9.375Z" fill="#299764"/>
<path d="M15 33.125C9.82233 33.125 5.625 37.3223 5.625 42.5V45.4707C5.625 47.3538 6.98971 48.9594 8.84818 49.2628C14.375 50.1651 19.9585 50.6013 25.5402 50.5712C25.9305 50.5691 26.1665 50.1374 25.9756 49.797C24.5582 47.2694 23.75 44.3541 23.75 41.25C23.75 39.2823 24.0748 37.3904 24.6736 35.6251C24.7861 35.2933 24.5454 34.9406 24.1954 34.9251C22.5658 34.8527 20.9436 34.5602 19.374 34.0476L17.2102 33.3411C16.7717 33.1979 16.3134 33.125 15.8522 33.125H15Z" fill="#299764"/>
<path d="M43.125 37.5C43.125 36.4645 42.2855 35.625 41.25 35.625C40.2145 35.625 39.375 36.4645 39.375 37.5V41.9318C39.375 42.5317 39.662 43.0954 40.1472 43.4482L42.6472 45.2664C43.4847 45.8755 44.6573 45.6903 45.2664 44.8528C45.8755 44.0153 45.6903 42.8427 44.8528 42.2336L43.125 40.977V37.5Z" fill="#299764"/>
<path fill-rule="evenodd" clip-rule="evenodd" d="M41.25 55C48.8439 55 55 48.8439 55 41.25C55 33.6561 48.8439 27.5 41.25 27.5C33.6561 27.5 27.5 33.6561 27.5 41.25C27.5 48.8439 33.6561 55 41.25 55ZM41.25 51.25C46.7728 51.25 51.25 46.7728 51.25 41.25C51.25 35.7272 46.7728 31.25 41.25 31.25C35.7272 31.25 31.25 35.7272 31.25 41.25C31.25 46.7728 35.7272 51.25 41.25 51.25Z" fill="#299764"/>
</svg>
